<svg xmlns="http://www.w3.org/2000/svg" width="1200" height="300" viewBox="0 0 1200 300">
  <defs>
    <linearGradient id="g2" x1="0" x2="1" y1="0" y2="0">
      <stop offset="0%" stop-color="#1e1e1e"/>
      <stop offset="100%" stop-color="#005a9c"/>
    </linearGradient>
    <filter id="shadow2" x="-20%" y="-20%" width="140%" height="140%">
      <feDropShadow dx="0" dy="8" stdDeviation="10" flood-opacity="0.35"/>
    </filter>
  </defs>

  <rect x="0" y="0" width="1200" height="300" fill="url(#g2)"/>

  <g filter="url(#shadow2)">
    <rect x="48" y="48" rx="28" ry="28" width="1104" height="204" fill="rgba(0,0,0,0.25)" stroke="rgba(255,255,255,0.20)"/>
  </g>

  <g font-family="Poppins, Arial, sans-serif" fill="#ffffff">
    <text x="96" y="132" font-size="52" font-weight="800" letter-spacing="-0.5">Taller Mecánico El Toro</text>
    <text x="96" y="180" font-size="28" font-weight="600" opacity="0.92">Service • Tren delantero • Electricidad • Diagnóstico</text>
    <text x="96" y="224" font-size="22" font-weight="500" opacity="0.85">Villa Mercedes — Turnos por Instagram</text>
  </g>

  <g transform="translate(970,86)" fill="#ffffff" opacity="0.95">
    <rect x="0" y="0" width="130" height="130" rx="28" fill="rgba(255,255,255,0.14)" stroke="rgba(255,255,255,0.24)"/>
    <path d="M64 28l10 10-8 8 8 8-10 10-8-8-8 8-10-10 8-8-8-8 10-10 8 8 8-8zm-22 54h44v14H42V82z"/>
  </g>
</svg>
