<svg xmlns="http://www.w3.org/2000/svg" width="1200" height="300" viewBox="0 0 1200 300">
  <defs>
    <linearGradient id="g" x1="0" x2="1" y1="0" y2="1">
      <stop offset="0%" stop-color="#005a9c"/>
      <stop offset="100%" stop-color="#00d2ff"/>
    </linearGradient>
    <filter id="shadow" x="-20%" y="-20%" width="140%" height="140%">
      <feDropShadow dx="0" dy="8" stdDeviation="10" flood-opacity="0.35"/>
    </filter>
  </defs>

  <rect x="0" y="0" width="1200" height="300" fill="url(#g)"/>

  <g filter="url(#shadow)">
    <rect x="48" y="48" rx="28" ry="28" width="1104" height="204" fill="rgba(0,0,0,0.25)" stroke="rgba(255,255,255,0.22)"/>
  </g>

  <g font-family="Poppins, Arial, sans-serif" fill="#ffffff">
    <text x="96" y="132" font-size="52" font-weight="800" letter-spacing="-0.5">Almacén La Esquina</text>
    <text x="96" y="180" font-size="28" font-weight="600" opacity="0.92">Fiambres • Bebidas • Kiosco • Abierto hasta tarde</text>
    <text x="96" y="224" font-size="22" font-weight="500" opacity="0.85">Villa Mercedes — Envíos por WhatsApp</text>
  </g>

  <g transform="translate(980,82)" fill="#ffffff" opacity="0.95">
    <circle cx="60" cy="60" r="60" fill="rgba(255,255,255,0.16)" stroke="rgba(255,255,255,0.25)"/>
    <path d="M58 40c-10 0-18 8-18 18 0 18 18 36 18 36s18-18 18-36c0-10-8-18-18-18zm0 26a8 8 0 1 1 0-16 8 8 0 0 1 0 16z"/>
  </g>
</svg>
